<?xml version="1.0" encoding="utf-8"?>
<!-- Generator: Adobe Illustrator 27.3.0, SVG Export Plug-In . SVG Version: 6.00 Build 0)  -->
<svg version="1.1" id="레이어_1" xmlns="http://www.w3.org/2000/svg" xmlns:xlink="http://www.w3.org/1999/xlink" x="0px"
	 y="0px" viewBox="0 0 280 44.1" style="enable-background:new 0 0 280 44.1;" xml:space="preserve">
<style type="text/css">
	.st0{fill:#E00C5E;}
	.st1{fill:#1480C3;}
	.st2{fill:#4E5760;}
</style>
<g>
	<g>
		<path class="st0" d="M39.3,23.8L39.3,23.8V20c0-3-2.4-5.4-5.4-5.4h-13h-5.4l0,0V20l0,0v3.8l0,0v5.4l0,0V33l0,0v5.4l0,0h5.4h13
			c3,0,5.4-2.4,5.4-5.4v-3.8l0,0l0,0c0-1-0.3-1.9-0.7-2.7C39,25.7,39.3,24.8,39.3,23.8z M21,20h11.2c1,0,1.8,0.8,1.8,1.8V22
			c0,1-0.8,1.8-1.8,1.8H21V20z M32.2,33H21v-3.8h11.2c1,0,1.8,0.8,1.8,1.8v0.2C34,32.2,33.2,33,32.2,33z"/>
		<rect x="4.8" y="14.6" class="st1" width="5.4" height="23.8"/>
		<path class="st1" d="M41,5.5h-5.5l0,0H4.8v5.4h21.6l0,0l0,0h5.4h7.5h0.3c2,0,5.2,1.7,5.2,5.5v-0.6v4.3v2v7.2l0,0v9.2h5.4V23.8V20
			v-5.4l0,0l0,0C50.2,9.6,46,5.5,41,5.5z"/>
	</g>
	<g>
		<path class="st2" d="M68.8,36.1v-1.3l0,0v-2.3h-1.3v0.4v1.9v1.3v0.2v0.3c0,0.2-0.2,0.4-0.4,0.4h-2.3c-0.2,0-0.4-0.2-0.4-0.4v-0.3
			v-0.2v-1.3v-1.9v-0.4H63v2.3l0,0v1.3l0,0V37l0,0c0,0.7,0.6,1.3,1.3,1.3l0,0h3.2c0.7,0,1.3-0.6,1.3-1.3l0,0L68.8,36.1L68.8,36.1z"
			/>
		<path class="st2" d="M71.2,32.5h3.2h1.3v1.3h-1.3h-0.6h-2.2c-0.2,0-0.4,0.2-0.4,0.4v0.5l0,0h2.6h0.6l0,0h1.3V36v0.9
			c0,0.7-0.6,1.3-1.3,1.3h-3.2h-1.3v-1.3h1.3h0.6H74c0.2,0,0.4-0.2,0.4-0.4V36l0,0h-2.6h-0.6l0,0h-1.3v-1.3v-0.9
			C69.8,33.1,70.4,32.5,71.2,32.5z"/>
		<path class="st2" d="M82.8,33.8L82.8,33.8c0-0.7-0.6-1.3-1.3-1.3l0,0h-3.2l0,0c-0.7,0-1.3,0.6-1.3,1.3l0,0l0,0v0.9l0,0V36l0,0v2.3
			h1.3V36h3.2v2.3h1.3V36l0,0v-1.3l0,0V33.8L82.8,33.8z M81.3,34.8h-3.2v-0.5c0-0.2,0.2-0.4,0.4-0.4h2.3c0.2,0,0.4,0.2,0.4,0.4
			L81.3,34.8L81.3,34.8z"/>
		<polygon class="st2" points="88.2,32.5 88.2,36.7 85.1,32.5 83.7,32.5 83.7,38.4 85.1,38.4 85.1,34.2 88.2,38.4 89.6,38.4 
			89.6,32.5 		"/>
		<g>
			<path class="st2" d="M162.6,37.1L162.6,37.1L162.6,37.1z"/>
			<path class="st2" d="M162.6,36.1L162.6,36.1v-1.2v-0.1v-0.9c0-0.7-0.6-1.3-1.3-1.3h-3.2c-0.7,0-1.3,0.6-1.3,1.3l0,0l0,0v0.9l0,0
				v0.1l0,0v1.3v0.9c0,0.7,0.6,1.3,1.3,1.3h3.2c0.7,0,1.3-0.6,1.3-1.3l0,0l0,0V36.1L162.6,36.1z M161.4,35.3v0.9v0.2v0.3
				c0,0.2-0.2,0.4-0.4,0.4h-2.3c-0.2,0-0.4-0.2-0.4-0.4v-0.3v-0.2v-0.1v-0.4v-0.4v-0.4v-0.1v-0.2v-0.3c0-0.2,0.2-0.4,0.4-0.4h2.3
				c0.2,0,0.4,0.2,0.4,0.4v0.3v0.2v0.1l0,0V35.3z"/>
			<path class="st2" d="M156.8,33.8L156.8,33.8L156.8,33.8z"/>
		</g>
		<path class="st2" d="M152.1,38.4h1.3l0,0h2.3v-1.3h-0.4h-1.9h-1.3H152h-0.3c-0.2,0-0.4-0.2-0.4-0.4v-2.3c0-0.2,0.2-0.4,0.4-0.4
			h0.3h0.2h1.3h1.9h0.4v-1.3h-2.3l0,0h-1.3l0,0h-0.9l0,0c-0.7,0-1.3,0.6-1.3,1.3l0,0v3.2c0,0.7,0.6,1.3,1.3,1.3l0,0L152.1,38.4
			L152.1,38.4z"/>
		<path class="st2" d="M183.4,33.8L183.4,33.8c0-0.7-0.6-1.3-1.3-1.3l0,0h-3.2l0,0c-0.7,0-1.3,0.6-1.3,1.3l0,0l0,0v0.9l0,0V36l0,0
			v2.3h1.3V36h3.2v2.3h1.3V36l0,0v-1.3l0,0V33.8L183.4,33.8z M182.1,34.8h-3.2v-0.5c0-0.2,0.2-0.4,0.4-0.4h2.3
			c0.2,0,0.4,0.2,0.4,0.4v0.5H182.1z"/>
		<polygon class="st2" points="168.2,32.5 166.6,34.6 165.1,32.5 163.6,32.5 163.6,32.5 163.6,38.4 163.6,38.4 165.1,38.4 
			165.1,36.7 165.1,34.2 166.6,36.3 166.6,36.3 166.6,36.3 168.2,34.2 168.2,36.7 168.2,38.4 169.6,38.4 169.6,38.4 169.6,32.5 
			169.6,32.5 		"/>
		<path class="st2" d="M176.6,33.8c0-0.7-0.6-1.3-1.3-1.3h-3.2h-1.3v1.3v0.9V36v0.9v1.3h1.3v-1.8v-0.2v-0.1v-0.2l0,0h3.2
			c0.7,0,1.3-0.6,1.3-1.3v-0.5l0,0V33.8z M175.1,34.3c0,0.2-0.2,0.4-0.4,0.4h-2.2h-0.6l0,0l0,0v-0.5l0,0v-0.4h2.8
			C174.9,33.8,175.1,34,175.1,34.3L175.1,34.3L175.1,34.3z"/>
		<polygon class="st2" points="188.9,32.5 188.9,36.7 185.8,32.5 184.4,32.5 184.4,38.4 185.8,38.4 185.8,34.2 188.9,38.4 
			190.2,38.4 190.2,32.5 		"/>
		<g>
			<path class="st2" d="M191.2,34.8L191.2,34.8L191.2,34.8z"/>
			<polygon class="st2" points="191.2,34.8 191.2,34.8 191.2,33.8 			"/>
			<path class="st2" d="M197.2,34.8L197.2,34.8L197.2,34.8z"/>
			<path class="st2" d="M195.9,32.5v0.4v1.9v-0.9v0.2v0.3c0,0.2-0.2,0.4-0.4,0.4H195h-1.3h-0.5c-0.2,0-0.4-0.2-0.4-0.4v-1.5v-0.4
				h-1.5v2.3c0,0.7,0.6,1.3,1.3,1.3h0.9v2.3h1.3v-2.3h0.9c0.7,0,1.3-0.6,1.3-1.3l0,0v-0.9l0,0v0.9v-2.2L195.9,32.5L195.9,32.5z
				 M192.6,34v-0.2v0.5l0,0V34z"/>
		</g>
		<path class="st2" d="M139.9,36.1v-1.3l0,0v-2.3h-1.3v0.4v1.9v1.3v0.2v0.3c0,0.2-0.2,0.4-0.4,0.4h-2.3c-0.2,0-0.4-0.2-0.4-0.4v-0.3
			v-0.2v-1.3v-1.9v-0.4h-1.3v2.3l0,0v1.3l0,0V37l0,0c0,0.7,0.6,1.3,1.3,1.3l0,0h3.2c0.7,0,1.3-0.6,1.3-1.3l0,0L139.9,36.1
			L139.9,36.1z"/>
		<path class="st2" d="M142.2,32.5h3.2h1.3v1.4h-1.3h-0.6h-2.2c-0.2,0-0.4,0.2-0.4,0.4v0.5l0,0h2.6h0.6l0,0h1.3v1.3V37
			c0,0.7-0.6,1.3-1.3,1.3h-3.2h-1.3V37h1.3h0.6h2.2c0.2,0,0.4-0.2,0.4-0.4v-0.5l0,0h-2.6h-0.6l0,0h-1.3v-1.3v-0.9
			C140.9,33.1,141.6,32.5,142.2,32.5z"/>
		<path class="st2" d="M112.3,32.5H110h-1.3h-1.6c-0.4,0-0.7,0.3-0.7,0.7v0.7h2.3v4.6h1.3v-4.6h2.3
			C112.4,33.9,112.4,32.5,112.3,32.5z"/>
		<polygon class="st2" points="137.2,32.6 137.2,32.6 137.2,32.5 137.2,32.5 		"/>
		<path class="st2" d="M126.1,36.1L126.1,36.1v-1.2v-0.1v-0.9c0-0.7-0.6-1.3-1.3-1.3h-3.2c-0.7,0-1.3,0.6-1.3,1.3l0,0l0,0v0.9l0,0
			v0.1l0,0v1.3v0.9c0,0.7,0.6,1.3,1.3,1.3h3.2c0.7,0,1.3-0.6,1.3-1.3l0,0l0,0V36.1L126.1,36.1z M124.8,35.3v0.9v0.2v0.3
			c0,0.2-0.2,0.4-0.4,0.4h-2.3c-0.2,0-0.4-0.2-0.4-0.4v-0.3v-0.2v-0.1v-0.4v-0.4v-0.4v-0.1v-0.2v-0.3c0-0.2,0.2-0.4,0.4-0.4h2.3
			c0.2,0,0.4,0.2,0.4,0.4v0.3v0.2v0.1l0,0V35.3z"/>
		<polygon class="st2" points="131.6,32.5 131.6,32.5 131.6,32.6 131.6,32.6 		"/>
		<polygon class="st2" points="97.2,32.5 95.6,34.6 93.8,32.5 92.6,32.5 92.6,32.5 92.6,38.4 92.6,38.4 93.8,38.4 93.8,36.7 
			93.8,34.2 95.6,36.3 95.6,36.3 95.6,36.3 97.2,34.2 97.2,36.7 97.2,38.4 98.4,38.4 98.4,38.4 98.4,32.5 98.4,32.5 		"/>
		<path class="st2" d="M101.6,33.9h0.2h1.3h1.9h0.4v-1.3h-2.3h-1.3h-0.9l0,0h-1.3v2.3v1.3v1.6c0,0.4,0.3,0.7,0.7,0.7h0.7l0,0l0,0
			h0.9l0,0h1.3l0,0h2.3v-1.3H105h-1.9h-1.3h-0.2h-0.4c-0.2,0-0.4-0.2-0.4-0.4v-0.5h4.6V35h-4.6v-1.1H101.6z"/>
		<path class="st2" d="M119.2,33.8c0-0.7-0.6-1.3-1.3-1.3h-3.2h-1.5l0,0v1.3l0,0v0.9l0,0V36l0,0v0.9l0,0v1.3l0,0h1.3v-1.3v-0.5v-0.5
			h2.8c0.2,0,0.4,0.2,0.4,0.4l0,0l0,0v1.8l0,0l0,0h1.3v-1.3v-0.6v-0.4l0,0c0-0.2-0.1-0.5-0.2-0.7c0.1-0.2,0.2-0.4,0.2-0.7v-0.6
			H119.2z M117.8,34.3c0,0.2-0.2,0.4-0.4,0.4h-2.8v-0.9h2.8C117.7,33.8,117.8,34,117.8,34.3L117.8,34.3z"/>
		<path class="st2" d="M240.6,33.8v-1.3h-2.3H237h-1.6c-0.4,0-0.7,0.3-0.7,0.7v0.7h2.3v3.2h-2.3v0.7c0,0.4,0.3,0.7,0.7,0.7h1.6h1.3
			h2.3v-1.3h-2.3V34h2.3V33.8z"/>
		<path class="st2" d="M206.1,33.8L206.1,33.8c0-0.7-0.6-1.3-1.3-1.3l0,0h-3.2l0,0c-0.7,0-1.3,0.6-1.3,1.3l0,0l0,0v0.9l0,0V36l0,0
			v2.3h1.3V36h3.2v2.3h1.3V36l0,0v-1.3l0,0V33.8L206.1,33.8z M204.8,34.8h-3.2v-0.5c0-0.2,0.2-0.4,0.4-0.4h2.3
			c0.2,0,0.4,0.2,0.4,0.4v0.5H204.8z"/>
		<path class="st2" d="M208.4,32.5h3.2h1.3v1.3h-1.3H211h-2.2c-0.2,0-0.4,0.2-0.4,0.4v0.5l0,0h2.6h0.6l0,0h1.3V36v0.9
			c0,0.7-0.6,1.3-1.3,1.3h-3.2h-1.3v-1.3h1.3h0.6h2.2c0.2,0,0.4-0.2,0.4-0.4V36l0,0H209h-0.6l0,0h-1.3v-1.3v-0.9
			C207.1,33.1,207.8,32.5,208.4,32.5z"/>
		<path class="st2" d="M215.4,32.5h3.2h1.3v1.3h-1.3h-0.6h-2.2c-0.2,0-0.4,0.2-0.4,0.4v0.5l0,0h2.6h0.6l0,0h1.3V36v0.9
			c0,0.7-0.6,1.3-1.3,1.3h-3.2h-1.3v-1.3h1.3h0.6h2.2c0.2,0,0.4-0.2,0.4-0.4V36l0,0H216h-0.6l0,0h-1.3v-1.3v-0.9
			C214.1,33.1,214.6,32.5,215.4,32.5z"/>
		<g>
			<polygon class="st2" points="226.9,37.2 226.9,37.2 226.9,37.1 226.9,37.1 			"/>
			<path class="st2" d="M226.9,36.1L226.9,36.1v-1.2v-0.1v-0.9c0-0.7-0.6-1.3-1.3-1.3h-3.3c-0.7,0-1.3,0.6-1.3,1.3l0,0l0,0v0.9l0,0
				v0.1l0,0v1.3v0.9c0,0.7,0.6,1.3,1.3,1.3h3.2c0.7,0,1.3-0.6,1.3-1.3l0,0l0,0v-1H226.9z M225.4,35.3v0.9v0.2v0.3
				c0,0.2-0.2,0.4-0.4,0.4h-2.3c-0.2,0-0.4-0.2-0.4-0.4v-0.3v-0.2v-0.1v-0.4v-0.4v-0.4v-0.1v-0.2v-0.3c0-0.2,0.2-0.4,0.4-0.4h2.3
				c0.2,0,0.4,0.2,0.4,0.4v0.3v0.2v0.1l0,0V35.3z"/>
			<path class="st2" d="M220.9,33.8L220.9,33.8L220.9,33.8z"/>
		</g>
		<path class="st2" d="M230.1,38.4h1.3l0,0h2.3v-1.3h-0.4h-1.9h-1.3h-0.2h-0.3c-0.2,0-0.4-0.2-0.4-0.4v-2.3c0-0.2,0.2-0.4,0.4-0.4
			h0.3h0.2h1.3h1.9h0.4v-1.3h-2.3l0,0h-1.3l0,0h-0.9l0,0c-0.7,0-1.3,0.6-1.3,1.3l0,0v3.2c0,0.7,0.6,1.3,1.3,1.3l0,0L230.1,38.4
			L230.1,38.4z"/>
		<path class="st2" d="M247.6,33.8L247.6,33.8c0-0.7-0.6-1.3-1.3-1.3l0,0h-3.2l0,0c-0.7,0-1.3,0.6-1.3,1.3l0,0l0,0v0.9l0,0V36l0,0
			v2.3h1.3V36h3.2v2.3h1.3V36l0,0v-1.3l0,0V33.8L247.6,33.8z M246.2,34.8H243v-0.5c0-0.2,0.2-0.4,0.4-0.4h2.3c0.2,0,0.4,0.2,0.4,0.4
			v0.5H246.2z"/>
		<g>
			<polygon class="st2" points="268.4,37.2 268.4,37.2 268.4,37.1 268.4,37.1 			"/>
			<path class="st2" d="M268.4,36.1L268.4,36.1v-1.2v-0.1v-0.9c0-0.7-0.6-1.3-1.3-1.3h-3.2c-0.7,0-1.3,0.6-1.3,1.3l0,0l0,0v0.9l0,0
				v0.1l0,0v1.3v0.9c0,0.7,0.6,1.3,1.3,1.3h3.2c0.7,0,1.3-0.6,1.3-1.3l0,0l0,0V36.1L268.4,36.1z M267,35.3v0.9v0.2v0.3
				c0,0.2-0.2,0.4-0.4,0.4h-2.3c-0.2,0-0.4-0.2-0.4-0.4v-0.3v-0.2v-0.1v-0.4v-0.4v-0.4v-0.1v-0.2v-0.3c0-0.2,0.2-0.4,0.4-0.4h2.3
				c0.2,0,0.4,0.2,0.4,0.4v0.3v0.2v0.1l0,0V35.3z"/>
			<path class="st2" d="M262.5,33.8L262.5,33.8L262.5,33.8z"/>
		</g>
		<polygon class="st2" points="274,32.5 274,36.7 270.6,32.5 269.4,32.5 269.4,38.4 270.6,38.4 270.6,34.2 274,38.4 275.2,38.4 
			275.2,32.5 		"/>
		<path class="st2" d="M254.5,32.5h-2.3h-1.3h-1.6c-0.4,0-0.7,0.3-0.7,0.7v0.7h2.3v4.6h1.3v-4.6h2.3V32.5L254.5,32.5z"/>
		<path class="st2" d="M261.5,33.8v-1.3h-2.3h-1.3h-1.6c-0.4,0-0.7,0.3-0.7,0.7v0.7h2.3v3.2h-2.3v0.7c0,0.4,0.3,0.7,0.7,0.7h1.6h1.3
			h2.3v-1.3h-2.3V34h2.3V33.8z"/>
		<g>
			<path class="st2" d="M62.3,26.2v-3.8H56v-1.9h14.8v1.9h-6.3v3.8H62.3z M70.4,19.1H56.2v-7.3h2.1v1.8h10v-1.8h2.1V19.1L70.4,19.1z
				 M58.3,17.2h10v-1.8h-10C58.3,15.4,58.3,17.2,58.3,17.2z"/>
			<path class="st2" d="M77.2,14l-2.6,4.6h-2.2l3.9-6.8h1.9l3.9,6.8H80L77.2,14z M72.8,20.1h2.1v4h12.4V26H72.8V20.1z M87.4,15.5
				v3.1h-2.2v-6.8h2.1v1.8h1.5v1.9H87.4z"/>
			<path class="st2" d="M89.8,19.8v-1.9h2.8v-2.5h2.1v2.5h7.6v-6.2h2.1v1.8h1.5v1.9h-1.5v4.3h-2.8c0.6,0.3,1.1,0.7,1.4,1.3
				c0.3,0.6,0.5,1.2,0.5,1.8c0,1-0.4,1.9-1.1,2.7c-0.8,0.8-1.7,1.1-2.8,1.1c-1.1,0-2-0.4-2.8-1.1c-0.8-0.8-1.2-1.7-1.2-2.7
				c0-0.7,0.2-1.3,0.5-1.8c0.3-0.6,0.8-1,1.4-1.3h-7.7V19.8z M96.7,16.4v-2.8h-6.6v-1.9h8.8v4.6h-2.2C96.7,16.3,96.7,16.4,96.7,16.4
				z M98.2,21.6c-0.4,0.4-0.5,0.8-0.5,1.4c0,0.5,0.2,1,0.5,1.3c0.4,0.4,0.8,0.6,1.2,0.6c0.5,0,0.9-0.2,1.3-0.6s0.5-0.8,0.5-1.3
				s-0.2-1-0.5-1.4c-0.4-0.4-0.8-0.6-1.3-0.6C98.9,21.1,98.6,21.3,98.2,21.6z"/>
			<path class="st2" d="M107.8,12.6c0.8-0.7,1.7-1.1,2.8-1.1c1.1,0,2,0.4,2.8,1.1c0.8,0.7,1.2,1.6,1.2,2.7c0,1.1-0.4,2-1.2,2.8
				c-0.8,0.8-1.7,1.1-2.8,1.1c-1.1,0-2-0.4-2.8-1.1c-0.8-0.8-1.2-1.7-1.2-2.8C106.7,14.2,106.9,13.3,107.8,12.6z M121.6,26.3h-2.1
				v-4.2H107v-1.9h14.6V26.3z M109.2,13.9c-0.4,0.4-0.5,0.9-0.5,1.4c0,0.6,0.2,1,0.5,1.4c0.4,0.4,0.8,0.6,1.3,0.6s0.9-0.2,1.3-0.6
				s0.6-0.9,0.6-1.4s-0.2-1-0.6-1.4s-0.8-0.6-1.3-0.6S109.7,13.5,109.2,13.9z M119.4,12.9v-1.1h2.1v7.1h-2.1v-1.2h-2.9v-1.9h2.9
				v-1.1h-2.9v-1.8H119.4z"/>
			<path class="st2" d="M128.2,14.5l-2.7,5.8h-2.1l4-8.6h1.5l4,8.6h-2.1L128.2,14.5z M136.4,11.8h2.1v14.4h-2.1V11.8z"/>
			<path class="st2" d="M149.6,20.1h-9v-8.3h2.1v2.1h4.8v-2.1h2.1L149.6,20.1L149.6,20.1z M142.8,18.3h4.8v-2.5h-4.8V18.3z
				 M153.4,14.2v-2.4h2.1v14.4h-2.1V16.1h-2.6v-1.9C150.8,14.2,153.4,14.2,153.4,14.2z"/>
			<path class="st2" d="M165.1,13.8l-4.8,6.9h-2.6l6.3-8.9h2.2l6.3,8.9h-2.6L165.1,13.8z M172.4,24.1V26h-14.8v-1.9H172.4z"/>
			<path class="st2" d="M180.9,20.7h-6.5v-1.9h15.1v1.9H183v1.9h-2.1V20.7z M176.8,24.1h12.5V26h-14.6v-4.3h2.1V24.1z M179.1,11.9
				c0.7-0.7,1.6-1.1,2.7-1.1c1,0,1.9,0.4,2.7,1.1c0.8,0.7,1.1,1.6,1.1,2.6s-0.4,1.9-1.1,2.6c-0.8,0.7-1.7,1.1-2.7,1.1
				s-1.9-0.4-2.7-1.1c-0.7-0.7-1.1-1.6-1.1-2.6C178.1,13.5,178.4,12.6,179.1,11.9z M180.6,13.2c-0.3,0.4-0.5,0.8-0.5,1.3
				s0.2,0.9,0.5,1.3c0.3,0.3,0.7,0.5,1.2,0.5s0.8-0.2,1.2-0.5c0.3-0.3,0.5-0.8,0.5-1.3s-0.2-0.9-0.5-1.3c-0.3-0.4-0.7-0.5-1.2-0.5
				C181.4,12.7,181.1,12.9,180.6,13.2z"/>
			<path class="st2" d="M199.9,18.3h6.6v1.9h-5.1c0.4,0.4,0.7,0.8,1,1.3c0.2,0.5,0.4,1,0.4,1.6c0,1.1-0.4,2-1.2,2.7
				c-0.8,0.8-1.7,1.1-2.9,1.1c-1.1,0-2.1-0.4-2.9-1.1c-0.8-0.8-1.2-1.7-1.2-2.7c0-0.6,0.1-1.1,0.4-1.6c0.3-0.5,0.6-0.9,1.1-1.3h-5.3
				v-1.9h6.9v-1.9h2.1L199.9,18.3L199.9,18.3z M198.9,13.4l-4.7,3.9h-2.8l6.5-5.5h2.2l6.5,5.5h-2.9L198.9,13.4z M197.4,21.5
				c-0.4,0.4-0.6,0.9-0.6,1.4c0,0.6,0.2,1,0.6,1.4c0.4,0.4,0.8,0.6,1.4,0.6c0.5,0,1-0.2,1.3-0.6c0.4-0.4,0.6-0.9,0.6-1.4
				c0-0.6-0.2-1.1-0.6-1.4c-0.4-0.4-0.8-0.6-1.3-0.6C198.2,20.9,197.8,21.1,197.4,21.5z"/>
			<path class="st2" d="M212.9,14.5l-2.7,5.8h-2.1l4-8.6h1.5l4,8.6h-2.1L212.9,14.5z M222.9,16.1v10.1h-2.1V11.8h2.1v2.4h1.5v1.9
				C224.4,16.1,222.9,16.1,222.9,16.1z"/>
			<path class="st2" d="M226.4,12.3c0.8-0.7,1.7-1.1,2.8-1.1s2,0.4,2.7,1.1c0.8,0.7,1.1,1.6,1.1,2.7c0,1-0.4,1.9-1.1,2.7
				c-0.8,0.7-1.7,1.1-2.7,1.1c-1.1,0-2-0.4-2.8-1.1s-1.2-1.6-1.2-2.7C225.1,13.9,225.6,13,226.4,12.3z M225.6,19.5h2.1V21H238v-1.5
				h2.1V26h-14.6L225.6,19.5L225.6,19.5z M227.9,13.6c-0.3,0.4-0.5,0.8-0.5,1.4c0,0.5,0.2,1,0.5,1.3c0.3,0.4,0.8,0.6,1.2,0.6
				c0.5,0,0.9-0.2,1.3-0.6c0.3-0.4,0.5-0.8,0.5-1.3s-0.2-1-0.5-1.4s-0.8-0.6-1.3-0.6C228.6,13,228.1,13.2,227.9,13.6z M238.1,22.9
				h-10.3v1.2h10.3V22.9z M238.1,13.6v-1.8h2.1v6.3h-2.1v-2.6h-2.9v-1.9C235.2,13.6,238.1,13.6,238.1,13.6z"/>
			<path class="st2" d="M249.6,13.6l-4.8,6.5h-2.6l4.7-6.5h-4.5v-1.9H257v1.9h-4.5l4.6,6.5h-2.6L249.6,13.6z M250.8,20.4v3.7h6.3V26
				h-14.8v-1.9h6.3v-3.7H250.8z"/>
			<path class="st2" d="M262.6,12.1v-1.2h2.1v1.2h3.4V14h-1.3c0.1,0.2,0.2,0.5,0.3,0.7c0.1,0.2,0.1,0.5,0.1,0.8
				c0,0.9-0.4,1.8-1.1,2.4c-0.7,0.7-1.6,1-2.6,1s-1.9-0.3-2.6-1s-1.1-1.5-1.1-2.4c0-0.3,0-0.6,0.1-0.8s0.2-0.5,0.3-0.7h-1.3v-1.9
				C258.9,12.1,262.6,12.1,262.6,12.1z M259.4,19.6h2.1V21h10v-1.4h2.1v6.3h-14.3L259.4,19.6L259.4,19.6z M271.5,22.9h-10v1.2h10
				V22.9z M262.5,14.4c-0.3,0.3-0.5,0.7-0.5,1.1c0,0.4,0.2,0.8,0.5,1.1c0.3,0.3,0.7,0.5,1.1,0.5s0.8-0.2,1.1-0.5
				c0.3-0.3,0.5-0.7,0.5-1.1s-0.2-0.8-0.5-1.1S264,14,263.6,14S262.9,14.1,262.5,14.4z M273.8,15.5v2.6h-2.1v-6.3h2.1v1.8h1.5v1.9
				H273.8z"/>
		</g>
		<path class="st2" d="M61.9,34.8L61.9,34.8v-0.9c0-0.7-0.6-1.3-1.3-1.3h-3.2h-1.3l0,0v1.3l0,0v0.9l0,0v1.3l0,0V37l0,0v1.3l0,0h1.3
			h3.2c0.7,0,1.3-0.6,1.3-1.3v-0.9l0,0l0,0c0-0.2-0.1-0.5-0.2-0.7C61.8,35.3,61.9,35,61.9,34.8z M57.3,33.8h2.8
			c0.2,0,0.4,0.2,0.4,0.4v0.1c0,0.2-0.2,0.4-0.4,0.4h-2.8C57.4,34.7,57.4,33.8,57.3,33.8z M60.2,37.1h-2.8v-0.9h2.8
			c0.2,0,0.4,0.2,0.4,0.4v0.1C60.7,36.9,60.4,37.1,60.2,37.1z"/>
		<path class="st2" d="M133.1,34.8L133.1,34.8v-0.9c0-0.7-0.6-1.3-1.3-1.3h-3.2h-1.3l0,0v1.3l0,0v0.9l0,0v1.3l0,0V37l0,0v1.3l0,0
			h1.3h3.2c0.7,0,1.3-0.6,1.3-1.3v-0.9l0,0l0,0c0-0.2-0.1-0.5-0.2-0.7C132.9,35.3,133.1,35,133.1,34.8z M128.4,33.8h2.8
			c0.2,0,0.4,0.2,0.4,0.4v0.1c0,0.2-0.2,0.4-0.4,0.4h-2.8V33.8z M131.2,37.1h-2.8v-0.9h2.8c0.2,0,0.4,0.2,0.4,0.4v0.1
			C131.6,36.9,131.4,37.1,131.2,37.1z"/>
	</g>
</g>
</svg>
